<svg width="36" height="36" viewBox="0 0 36 36" fill="none" xmlns="http://www.w3.org/2000/svg">
<g clip-path="url(#clip0_5559_4633)">
<path d="M31.364 17.165C31.3045 15.8156 31.0862 14.8878 30.7736 14.084C30.451 13.2307 29.9548 12.4667 29.3047 11.8316C28.6695 11.1866 27.9003 10.6855 27.0567 10.368C26.2481 10.0554 25.325 9.8372 23.9753 9.7777C22.6155 9.71316 22.1839 9.69824 18.7351 9.69824C15.2863 9.69824 14.8547 9.71316 13.4999 9.77266C12.1502 9.83216 11.2223 10.0506 10.4185 10.363C9.56482 10.6855 8.80071 11.1816 8.16551 11.8316C7.52041 12.4667 7.01934 13.2357 6.70164 14.0791C6.38898 14.8878 6.17072 15.8105 6.11121 17.16C6.04666 18.5195 6.03174 18.9511 6.03174 22.3992C6.03174 25.8473 6.04666 26.2789 6.10617 27.6333C6.16568 28.9828 6.38414 29.9105 6.6968 30.7144C7.01934 31.5677 7.52041 32.3317 8.16551 32.9667C8.80071 33.6117 9.56986 34.1129 10.4134 34.4303C11.2223 34.7429 12.1452 34.9612 13.4951 35.0206C14.8496 35.0803 15.2815 35.0951 18.7302 35.0951C22.179 35.0951 22.6107 35.0803 23.9654 35.0206C25.3151 34.9612 26.243 34.7429 27.0469 34.4303C28.754 33.7704 30.1037 32.421 30.7637 30.7144C31.0762 29.9057 31.2946 28.9828 31.3541 27.6333C31.4136 26.2789 31.4286 25.8473 31.4286 22.3992C31.4286 18.9511 31.4235 18.5195 31.364 17.165ZM29.0765 27.5341C29.0219 28.7744 28.8135 29.4442 28.6398 29.8907C28.213 30.9971 27.3347 31.8753 26.2281 32.302C25.7815 32.4757 25.1067 32.684 23.871 32.7384C22.5312 32.7981 22.1294 32.8129 18.7401 32.8129C15.3509 32.8129 14.944 32.7981 13.6091 32.7384C12.3685 32.684 11.6986 32.4757 11.252 32.302C10.7013 32.0985 10.2 31.776 9.79316 31.3543C9.37137 30.9425 9.04882 30.4464 8.84529 29.8958C8.67162 29.4493 8.46324 28.7744 8.40877 27.5392C8.34907 26.1996 8.33434 25.7977 8.33434 22.4091C8.33434 19.0205 8.34907 18.6137 8.40877 17.2792C8.46324 16.0388 8.67162 15.369 8.84529 14.9225C9.04882 14.3717 9.37137 13.8708 9.7982 13.4638C10.2099 13.0421 10.7061 12.7196 11.257 12.5163C11.7036 12.3427 12.3786 12.1343 13.6141 12.0797C14.9539 12.0202 15.3559 12.0052 18.745 12.0052C22.1393 12.0052 22.5411 12.0202 23.8761 12.0797C25.1166 12.1343 25.7865 12.3427 26.2331 12.5163C26.7838 12.7196 27.2851 13.0421 27.692 13.4638C28.1137 13.8756 28.4363 14.3717 28.6398 14.9225C28.8135 15.369 29.0219 16.0437 29.0765 17.2792C29.136 18.6187 29.151 19.0205 29.151 22.4091C29.151 25.7977 29.136 26.1946 29.0765 27.5341Z" fill="#08A742"/>
<path d="M18.4127 15.4126C14.3817 15.4126 11.1111 18.5408 11.1111 22.3967C11.1111 26.2527 14.3817 29.3809 18.4127 29.3809C22.4439 29.3809 25.7143 26.2527 25.7143 22.3967C25.7143 18.5408 22.4439 15.4126 18.4127 15.4126ZM18.4127 26.9272C15.7976 26.9272 13.6763 24.8983 13.6763 22.3967C13.6763 19.8951 15.7976 17.8663 18.4127 17.8663C21.028 17.8663 23.149 19.8951 23.149 22.3967C23.149 24.8983 21.028 26.9272 18.4127 26.9272Z" fill="#08A742"/>
<path d="M26.3493 15.4127C26.3493 16.1139 25.7807 16.6825 25.0793 16.6825C24.3781 16.6825 23.8096 16.1139 23.8096 15.4127C23.8096 14.7113 24.3781 14.1428 25.0793 14.1428C25.7807 14.1428 26.3493 14.7113 26.3493 15.4127Z" fill="#08A742"/>
</g>
<defs>
<clipPath id="clip0_5559_4633">
<rect width="34.9206" height="34.9206" fill="white" transform="translate(0.952393 0.174561)"/>
</clipPath>
</defs>
</svg>
