<svg width="14" height="11" viewBox="0 0 14 11" fill="none" xmlns="http://www.w3.org/2000/svg">
<path d="M13.1375 0.132324H0.481401C0.212155 0.132324 -0.00537109 0.349685 -0.00537109 0.618727V10.3468C-0.00537109 10.6158 0.212155 10.8332 0.481401 10.8332H13.1375C13.4067 10.8332 13.6243 10.6158 13.6243 10.3468V0.618727C13.6243 0.349685 13.4067 0.132324 13.1375 0.132324ZM12.529 1.81649V9.73878H1.08987V1.81649L0.670026 1.48969L1.26784 0.722087L1.9189 1.22825H11.7015L12.3526 0.722087L12.9504 1.48969L12.529 1.81649ZM11.7015 1.22673L6.80944 5.02675L1.91738 1.22673L1.26632 0.720567L0.668505 1.48817L1.08835 1.81497L6.28464 5.85211C6.43408 5.96812 6.61793 6.0311 6.80716 6.0311C6.9964 6.0311 7.18024 5.96812 7.32968 5.85211L12.529 1.81649L12.9489 1.48969L12.351 0.722087L11.7015 1.22673Z" fill="#08A742"/>
</svg>
