<svg width="18" height="19" viewBox="0 0 18 19" fill="none" xmlns="http://www.w3.org/2000/svg">
<g clip-path="url(#clip0_5559_4605)">
<path d="M9.80949 6.86182C9.28207 6.86182 8.7665 7.00128 8.32797 7.26258C7.88944 7.52387 7.54764 7.89526 7.34581 8.32978C7.14398 8.76429 7.09117 9.24242 7.19406 9.7037C7.29696 10.165 7.55093 10.5887 7.92387 10.9213C8.29681 11.2538 8.77197 11.4803 9.28925 11.5721C9.80653 11.6638 10.3427 11.6167 10.83 11.4367C11.3172 11.2568 11.7337 10.952 12.0267 10.5609C12.3198 10.1699 12.4762 9.7101 12.4762 9.23978C12.4762 8.60911 12.1952 8.00426 11.6951 7.55831C11.195 7.11235 10.5167 6.86182 9.80949 6.86182ZM9.80949 10.7877C9.46616 10.7877 9.13055 10.697 8.84508 10.5269C8.55961 10.3568 8.33712 10.115 8.20573 9.83216C8.07435 9.54931 8.03997 9.23807 8.10695 8.93779C8.17393 8.63752 8.33926 8.3617 8.58203 8.14521C8.8248 7.92872 9.1341 7.78129 9.47083 7.72157C9.80756 7.66184 10.1566 7.69249 10.4738 7.80965C10.791 7.92682 11.0621 8.12522 11.2528 8.37978C11.4436 8.63434 11.5454 8.93363 11.5454 9.23978C11.5441 9.64961 11.3607 10.0423 11.0353 10.3317C10.7099 10.6211 10.2691 10.7836 9.80949 10.7836V10.7877Z" fill="#08A742"/>
<path d="M9.80736 4.48389C8.47606 4.48498 7.19929 5.00348 6.25592 5.92615C5.31255 6.84882 4.77924 8.10068 4.77246 9.4083C4.77246 11.3688 5.89228 13.0103 6.71291 14.2068L6.8625 14.4251C7.67897 15.5874 8.55486 16.7083 9.4868 17.7836L9.81163 18.1572L10.1365 17.7836C11.0683 16.7082 11.9442 15.5873 12.7608 14.4251L12.9104 14.2026C13.7267 13.0061 14.8465 11.3688 14.8465 9.4083C14.8398 8.09995 14.3059 6.84746 13.3616 5.92467C12.4173 5.00188 11.1394 4.48387 9.80736 4.48389ZM12.1966 13.7198L12.0427 13.9423C11.3076 15.0254 10.3331 16.2387 9.80736 16.839C9.30302 16.2387 8.30715 15.0254 7.572 13.9423L7.42241 13.7198C6.66589 12.6115 5.62728 11.0959 5.62728 9.3915C5.62728 8.85233 5.7354 8.31843 5.94547 7.82029C6.15554 7.32216 6.46344 6.86954 6.8516 6.48828C7.23975 6.10703 7.70056 5.8046 8.20771 5.59826C8.71486 5.39193 9.25842 5.28573 9.80736 5.28573C10.3563 5.28573 10.8999 5.39193 11.407 5.59826C11.9142 5.8046 12.375 6.10703 12.7631 6.48828C13.1513 6.86954 13.4592 7.32216 13.6692 7.82029C13.8793 8.31843 13.9874 8.85233 13.9874 9.3915C13.9874 11.1127 12.9531 12.6283 12.1966 13.7198Z" fill="#08A742"/>
</g>
<defs>
<clipPath id="clip0_5559_4605">
<rect width="17.7778" height="17.8348" fill="white" transform="translate(0.0317383 0.916992)"/>
</clipPath>
</defs>
</svg>
