<svg width="11" height="16" viewBox="0 0 11 16" fill="none" xmlns="http://www.w3.org/2000/svg">
<path d="M9.22892 0.805908H1.79749C1.23212 0.805908 0.772461 1.26292 0.772461 1.82504V14.0546C0.772461 14.6167 1.23212 15.0737 1.79749 15.0737H9.22892C9.79428 15.0737 10.2539 14.6167 10.2539 14.0546V1.82504C10.2539 1.26292 9.79428 0.805908 9.22892 0.805908ZM9.10079 13.9272H1.92561V1.95243H9.10079V13.9272ZM4.87256 12.303C4.87256 12.4719 4.94006 12.6339 5.0602 12.7534C5.18034 12.8728 5.34329 12.9399 5.5132 12.9399C5.68311 12.9399 5.84606 12.8728 5.9662 12.7534C6.08635 12.6339 6.15384 12.4719 6.15384 12.303C6.15384 12.134 6.08635 11.972 5.9662 11.8526C5.84606 11.7331 5.68311 11.666 5.5132 11.666C5.34329 11.666 5.18034 11.7331 5.0602 11.8526C4.94006 11.972 4.87256 12.134 4.87256 12.303Z" fill="#08A742"/>
</svg>
