<svg width="18" height="19" viewBox="0 0 18 19" fill="none" xmlns="http://www.w3.org/2000/svg">
<path d="M12.5797 8.89856C12.586 8.90618 12.5925 8.91402 12.5992 8.92209C12.6914 9.0332 12.8229 9.18724 12.9806 9.36014C13.2923 9.70172 13.7221 10.134 14.1643 10.45C14.3848 10.6076 14.6261 10.7493 14.8712 10.8311C15.1151 10.9124 15.4058 10.948 15.6857 10.8279C15.9737 10.7045 16.1644 10.4538 16.2791 10.1424C16.3917 9.83632 16.4443 9.44012 16.4443 8.95112C16.4443 8.06553 16.2217 7.36186 15.8079 6.81828C15.3964 6.27786 14.8246 5.93349 14.192 5.71193C12.963 5.28153 11.3946 5.28158 10.0318 5.28164L9.98719 5.28164L9.9426 5.28164C8.57983 5.28158 7.01135 5.28153 5.7824 5.71193C5.1498 5.93349 4.57802 6.27786 4.16654 6.81828C3.75264 7.36186 3.53005 8.06553 3.53005 8.95112C3.53005 9.44012 3.58264 9.83632 3.69532 10.1424C3.81001 10.4538 4.00073 10.7045 4.28864 10.8279C4.56859 10.948 4.85927 10.9124 5.10314 10.8311C5.34825 10.7493 5.58956 10.6076 5.81008 10.45C6.25224 10.134 6.68209 9.70172 6.99376 9.36014C7.15153 9.18724 7.28295 9.0332 7.37517 8.92209C7.38186 8.91402 7.38836 8.90618 7.39464 8.89856H12.5797ZM7.66241 9.46893C7.55291 9.46893 7.4479 9.51245 7.37049 9.5899L7.66241 9.88163C7.37049 9.5899 7.37035 9.59004 7.37021 9.59018L7.36987 9.59052L7.36904 9.59136L7.36675 9.59368L7.35968 9.60091L7.33601 9.62567C7.31615 9.64674 7.28827 9.67695 7.25354 9.71617C7.1841 9.79459 7.08716 9.90916 6.97197 10.059C6.74169 10.3586 6.43777 10.8 6.13476 11.3761C5.52838 12.5289 4.92492 14.2229 4.92492 16.3952C4.92492 16.6231 5.10969 16.8079 5.33762 16.8079H14.6368C14.8647 16.8079 15.0495 16.6231 15.0495 16.3952C15.0495 14.2229 14.446 12.5289 13.8396 11.3761C13.5366 10.8 13.2327 10.3586 13.0024 10.059C12.8872 9.90916 12.7903 9.79459 12.7208 9.71617C12.6861 9.67695 12.6582 9.64674 12.6384 9.62567L12.6147 9.60091L12.6076 9.59368L12.6053 9.59136L12.6045 9.59052L12.6042 9.59018C12.604 9.59004 12.6039 9.5899 12.312 9.88163L12.6039 9.5899C12.5265 9.51245 12.4215 9.46893 12.312 9.46893H7.66241Z" stroke="#08A742" stroke-width="0.825397" stroke-linecap="round" stroke-linejoin="round"/>
<path d="M9.98725 15.3813C11.1983 15.3813 12.1777 14.3968 12.1777 13.1851C12.1777 11.9734 11.1983 10.9889 9.98725 10.9889C8.77624 10.9889 7.79677 11.9734 7.79677 13.1851C7.79677 14.3968 8.77624 15.3813 9.98725 15.3813Z" stroke="#08A742" stroke-width="0.825397" stroke-linecap="round" stroke-linejoin="round"/>
</svg>
