<svg width="36" height="36" viewBox="0 0 36 36" fill="none" xmlns="http://www.w3.org/2000/svg">
<path d="M32.0476 12.3243C31.0323 12.7697 29.9505 13.0649 28.8226 13.2082C29.9829 12.5154 30.8685 11.4268 31.2848 10.1146C30.203 10.7596 29.0086 11.2152 27.7356 11.4694C26.7084 10.3757 25.2443 9.69824 23.6472 9.69824C20.5485 9.69824 18.0538 12.2134 18.0538 15.2968C18.0538 15.7404 18.0913 16.167 18.1835 16.5731C13.5303 16.3462 9.41284 14.116 6.64684 10.7186C6.16395 11.5565 5.88069 12.5154 5.88069 13.5478C5.88069 15.4862 6.87891 17.2045 8.36684 18.1993C7.4676 18.1822 6.58542 17.9211 5.83804 17.5099C5.83804 17.527 5.83804 17.5492 5.83804 17.5713C5.83804 20.2913 7.77815 22.5505 10.3223 23.0709C9.86673 23.1955 9.37018 23.2552 8.85486 23.2552C8.49653 23.2552 8.13478 23.2347 7.79522 23.1596C8.52042 25.3762 10.5783 27.0057 13.0252 27.0586C11.1209 28.5483 8.703 29.4458 6.08546 29.4458C5.62645 29.4458 5.18621 29.4253 4.74597 29.369C7.2253 30.9679 10.1636 31.8808 13.3323 31.8808C23.6318 31.8808 29.2628 23.349 29.2628 15.9537C29.2628 15.7063 29.2543 15.4674 29.2423 15.2302C30.3532 14.4419 31.2865 13.4573 32.0476 12.3243Z" fill="#08A742"/>
</svg>
