<svg width="22" height="26" viewBox="0 0 22 26" fill="none" xmlns="http://www.w3.org/2000/svg">
<path d="M17.7838 19.8962C17.7057 19.8045 17.6036 19.7556 17.4895 19.7556H3.88022C3.76611 19.7556 3.67002 19.8045 3.58594 19.8962C3.50786 19.9879 3.46582 20.1041 3.46582 20.2325C3.46582 20.3609 3.50786 20.477 3.58594 20.5687C3.66401 20.6604 3.76611 20.7093 3.88022 20.7093H17.4895C17.6036 20.7093 17.6997 20.6604 17.7838 20.5687C17.8619 20.477 17.9039 20.3609 17.9039 20.2325C17.9039 20.1041 17.8619 19.9879 17.7838 19.8962Z" fill="#08A742"/>
<path d="M17.4895 22.0298H3.88022C3.76611 22.0298 3.67002 22.0787 3.58594 22.1704C3.50786 22.2621 3.46582 22.3783 3.46582 22.5066C3.46582 22.635 3.50786 22.7512 3.58594 22.8429C3.66401 22.9346 3.76611 22.9835 3.88022 22.9835H17.4895C17.6036 22.9835 17.6997 22.9346 17.7838 22.8429C17.8619 22.7512 17.9039 22.635 17.9039 22.5066C17.9039 22.3783 17.8619 22.2621 17.7838 22.1704C17.6997 22.0787 17.6036 22.0298 17.4895 22.0298Z" fill="#08A742"/>
<path d="M19.2788 24.1879H3.93384C3.19512 24.1879 2.49844 23.8945 1.97593 23.3626C1.45342 22.8307 1.16514 22.1215 1.16514 21.3696C1.16514 20.6176 1.45342 19.9084 1.97593 19.3766C2.49844 18.8447 3.19512 18.5512 3.93384 18.5512H19.2788C19.5971 18.5512 19.8554 18.2884 19.8554 17.9643C19.8554 17.6403 19.5971 17.3774 19.2788 17.3774H3.93384C2.88281 17.3774 1.89785 17.7932 1.15312 18.5512C0.408398 19.3093 0 20.3119 0 21.3818C0 22.4517 0.408398 23.4543 1.15312 24.2124C1.89785 24.9705 2.88281 25.3862 3.93384 25.3862H19.2788C19.5971 25.3862 19.8554 25.1233 19.8554 24.7993C19.8614 24.4569 19.5971 24.1879 19.2788 24.1879Z" fill="#08A742"/>
<path d="M10.6419 8.52496C11.1344 8.52496 11.5368 8.11535 11.5368 7.61404C11.5368 7.11273 11.1344 6.70312 10.6419 6.70312C10.1495 6.70312 9.74707 7.11273 9.74707 7.61404C9.74707 8.12147 10.1495 8.52496 10.6419 8.52496Z" fill="#08A742"/>
<path d="M7.39915 9.75982C7.89163 9.75982 8.29402 9.35021 8.29402 8.8489C8.29402 8.34759 7.89163 7.93799 7.39915 7.93799C6.90666 7.93799 6.50427 8.34759 6.50427 8.8489C6.50427 9.35021 6.90666 9.75982 7.39915 9.75982Z" fill="#08A742"/>
<path d="M4.81236 10.4269C5.0015 9.96211 4.78467 9.42924 4.32805 9.23671C3.87144 9.04418 3.34795 9.26489 3.15881 9.72969C2.96967 10.1945 3.1865 10.7274 3.64312 10.9199C4.09973 11.1124 4.62322 10.8917 4.81236 10.4269Z" fill="#08A742"/>
<path d="M21.303 1.06642C21.1288 1.51882 20.8045 1.86118 20.4862 2.20353C19.9216 2.80877 19.243 3.27952 18.6003 3.78694C18.4142 3.93366 18.27 4.09873 18.276 4.34939C18.3061 5.05856 18.3241 5.76773 18.3661 6.47078C18.4021 7.06991 18.4322 7.66292 17.9877 8.15812C17.9577 8.1948 17.9277 8.21925 17.9037 8.2376C17.7895 8.33541 17.7175 8.29873 17.6394 8.10921C17.5914 7.99917 17.5613 7.8769 17.5193 7.76074C17.3992 7.40004 17.2791 7.03934 17.1589 6.68476C17.0508 6.35463 16.9367 6.03061 16.8166 5.70659C16.6604 5.27864 16.4382 5.23585 16.0899 5.52318C15.5554 5.96336 15.0449 6.45244 14.5644 6.97209C14.5404 6.99655 14.5164 7.021 14.4923 7.04546C14.3302 7.19829 14.12 7.29 13.8797 7.29C13.3873 7.29 12.9849 6.88039 12.9849 6.37908C12.9849 6.05506 13.153 5.77384 13.3993 5.60877C13.4473 5.58432 13.4954 5.55987 13.5374 5.53541C14.15 5.20528 14.7146 4.82624 15.2971 4.42275C15.6815 4.15375 15.6575 3.87253 15.2791 3.59131C14.6004 3.09 13.9218 2.57646 13.2431 2.06904C13.0449 1.92231 13.0509 1.86729 13.2671 1.76947C13.6215 1.61052 13.9818 1.51882 14.3662 1.65332C15.171 1.94065 15.9758 2.21576 16.7746 2.52144C17.1169 2.64982 17.3932 2.62537 17.6875 2.39305C18.4142 1.81838 19.1769 1.29262 20.0177 0.90135C20.33 0.754625 20.6423 0.614014 20.9967 0.614014C21.345 0.626241 21.4231 0.742398 21.303 1.06642Z" fill="black"/>
<path d="M3.9881 16.4359C3.55568 16.4359 3.20734 16.0813 3.20734 15.6411V12.5477C3.20734 12.1075 3.55568 11.7529 3.9881 11.7529C4.42052 11.7529 4.76886 12.1075 4.76886 12.5477V15.6411C4.76886 16.0813 4.42052 16.4359 3.9881 16.4359Z" fill="#08A742"/>
<path d="M7.39929 16.4359C6.96687 16.4359 6.61853 16.0813 6.61853 15.6412V11.7835C6.61853 11.3434 6.96687 10.9888 7.39929 10.9888C7.83171 10.9888 8.18005 11.3434 8.18005 11.7835V15.6412C8.18005 16.0813 7.83171 16.4359 7.39929 16.4359Z" fill="#08A742"/>
<path d="M10.6426 16.436C10.2102 16.436 9.86182 16.0814 9.86182 15.6412V11.0194C9.86182 10.5792 10.2102 10.2246 10.6426 10.2246C11.075 10.2246 11.4233 10.5792 11.4233 11.0194V15.6412C11.4233 16.0814 11.075 16.436 10.6426 16.436Z" fill="#08A742"/>
<path d="M13.8796 16.4357C13.4472 16.4357 13.0989 16.0812 13.0989 15.641V10.2611C13.0989 9.82089 13.4472 9.46631 13.8796 9.46631C14.3121 9.46631 14.6604 9.82089 14.6604 10.2611V15.641C14.6604 16.0812 14.3121 16.4357 13.8796 16.4357Z" fill="#08A742"/>
<path d="M17.1224 16.4358C16.69 16.4358 16.3417 16.0812 16.3417 15.641V9.50301C16.3417 9.06284 16.69 8.70825 17.1224 8.70825C17.5549 8.70825 17.9032 9.06284 17.9032 9.50301V15.641C17.9032 16.0812 17.5549 16.4358 17.1224 16.4358Z" fill="#08A742"/>
</svg>
