<svg width="120" height="28" viewBox="0 0 120 28" fill="none" xmlns="http://www.w3.org/2000/svg">
<path d="M118.86 5.11009H113.916V6.95743H118.86V5.11009Z" fill="#08A742"/>
<path d="M18.8022 20.2093C18.7268 20.1219 18.6281 20.0753 18.5179 20.0753H5.36943C5.25918 20.0753 5.16634 20.1219 5.0851 20.2093C5.00967 20.2967 4.96906 20.4075 4.96906 20.5298C4.96906 20.6522 5.00967 20.7629 5.0851 20.8504C5.16054 20.9378 5.25918 20.9844 5.36943 20.9844H18.5179C18.6281 20.9844 18.721 20.9378 18.8022 20.8504C18.8776 20.7629 18.9182 20.6522 18.9182 20.5298C18.9182 20.4075 18.8776 20.2967 18.8022 20.2093Z" fill="#08A742"/>
<path d="M18.5179 22.2431H5.36943C5.25918 22.2431 5.16634 22.2897 5.0851 22.3771C5.00967 22.4645 4.96906 22.5753 4.96906 22.6977C4.96906 22.82 5.00967 22.9308 5.0851 23.0182C5.16054 23.1056 5.25918 23.1522 5.36943 23.1522H18.5179C18.6281 23.1522 18.721 23.1056 18.8022 23.0182C18.8776 22.9308 18.9182 22.82 18.9182 22.6977C18.9182 22.5753 18.8776 22.4645 18.8022 22.3771C18.721 22.2897 18.6281 22.2431 18.5179 22.2431Z" fill="#08A742"/>
<path d="M20.2466 24.3002H5.42123C4.70753 24.3002 4.03444 24.0205 3.52962 23.5135C3.02481 23.0065 2.74629 22.3305 2.74629 21.6137C2.74629 20.897 3.02481 20.221 3.52962 19.714C4.03444 19.207 4.70753 18.9272 5.42123 18.9272H20.2466C20.5541 18.9272 20.8036 18.6767 20.8036 18.3678C20.8036 18.0589 20.5541 17.8083 20.2466 17.8083H5.42123C4.4058 17.8083 3.45419 18.2046 2.73468 18.9272C2.01517 19.6499 1.62061 20.6056 1.62061 21.6254C1.62061 22.6452 2.01517 23.6009 2.73468 24.3236C3.45419 25.0462 4.4058 25.4424 5.42123 25.4424H20.2466C20.5541 25.4424 20.8036 25.1919 20.8036 24.883C20.8094 24.5567 20.5541 24.3002 20.2466 24.3002Z" fill="#08A742"/>
<path d="M11.9022 9.37003C12.378 9.37003 12.7667 8.97959 12.7667 8.50173C12.7667 8.02387 12.378 7.63342 11.9022 7.63342C11.4264 7.63342 11.0376 8.02387 11.0376 8.50173C11.0376 8.98541 11.4264 9.37003 11.9022 9.37003Z" fill="#08A742"/>
<path d="M8.76917 10.5472C9.24498 10.5472 9.63375 10.1567 9.63375 9.67888C9.63375 9.20102 9.24498 8.81058 8.76917 8.81058C8.29337 8.81058 7.9046 9.20102 7.9046 9.67888C7.9046 10.1567 8.29337 10.5472 8.76917 10.5472Z" fill="#08A742"/>
<path d="M6.26998 11.1832C6.45271 10.7401 6.24323 10.2322 5.80207 10.0486C5.36092 9.86512 4.85516 10.0755 4.67242 10.5186C4.48969 10.9616 4.69918 11.4696 5.14033 11.6531C5.58148 11.8366 6.08724 11.6262 6.26998 11.1832Z" fill="#08A742"/>
<path d="M22.2022 2.26043C22.0339 2.69167 21.7206 3.01801 21.4131 3.34436C20.8676 3.92129 20.212 4.37001 19.5911 4.8537C19.4112 4.99356 19.272 5.1509 19.2778 5.38983C19.3068 6.06583 19.3242 6.74182 19.3648 7.41199C19.3996 7.98309 19.4286 8.54837 18.9992 9.0204C18.9702 9.05536 18.9412 9.07867 18.918 9.09616C18.8078 9.1894 18.7381 9.15443 18.6627 8.97378C18.6163 8.86888 18.5873 8.75233 18.5466 8.64161C18.4306 8.29778 18.3145 7.95396 18.1985 7.61596C18.0941 7.30127 17.9838 6.99241 17.8678 6.68355C17.7169 6.27562 17.5022 6.23483 17.1657 6.50872C16.6492 6.92831 16.156 7.39451 15.6918 7.88985C15.6686 7.91316 15.6454 7.93647 15.6222 7.95978C15.4655 8.10547 15.2624 8.19289 15.0303 8.19289C14.5545 8.19289 14.1658 7.80244 14.1658 7.32458C14.1658 7.01572 14.3282 6.74765 14.5661 6.59031C14.6126 6.567 14.659 6.54369 14.6996 6.52038C15.2915 6.20569 15.8369 5.84438 16.3997 5.45976C16.7711 5.20335 16.7479 4.93528 16.3823 4.66721C15.7266 4.18935 15.071 3.69984 14.4153 3.21615C14.2238 3.07629 14.2296 3.02384 14.4385 2.9306C14.7808 2.77909 15.129 2.69167 15.5003 2.81988C16.2779 3.09377 17.0554 3.35601 17.8271 3.64739C18.1579 3.76977 18.4248 3.74646 18.7091 3.52501C19.4112 2.97722 20.1481 2.47605 20.9605 2.10309C21.2622 1.96323 21.5639 1.82919 21.9063 1.82919C22.2428 1.84085 22.3183 1.95157 22.2022 2.26043Z" fill="black"/>
<path d="M5.47368 16.9109C5.0559 16.9109 4.71936 16.5729 4.71936 16.1533V13.2046C4.71936 12.785 5.0559 12.447 5.47368 12.447C5.89146 12.447 6.22801 12.785 6.22801 13.2046V16.1533C6.22801 16.5729 5.89146 16.9109 5.47368 16.9109Z" fill="#08A742"/>
<path d="M8.7694 16.9109C8.35162 16.9109 8.01508 16.5729 8.01508 16.1533V12.4761C8.01508 12.0566 8.35162 11.7186 8.7694 11.7186C9.18718 11.7186 9.52372 12.0566 9.52372 12.4761V16.1533C9.52372 16.5729 9.18718 16.9109 8.7694 16.9109Z" fill="#08A742"/>
<path d="M11.9028 16.9109C11.485 16.9109 11.1485 16.5729 11.1485 16.1533V11.7477C11.1485 11.3281 11.485 10.9901 11.9028 10.9901C12.3206 10.9901 12.6571 11.3281 12.6571 11.7477V16.1533C12.6571 16.5729 12.3206 16.9109 11.9028 16.9109Z" fill="#08A742"/>
<path d="M15.0303 16.9109C14.6125 16.9109 14.2759 16.5729 14.2759 16.1533V11.0251C14.2759 10.6055 14.6125 10.2675 15.0303 10.2675C15.448 10.2675 15.7846 10.6055 15.7846 11.0251V16.1533C15.7846 16.5729 15.448 16.9109 15.0303 16.9109Z" fill="#08A742"/>
<path d="M18.1633 16.9109C17.7455 16.9109 17.4089 16.5729 17.4089 16.1533V10.3025C17.4089 9.88289 17.7455 9.54489 18.1633 9.54489C18.581 9.54489 18.9176 9.88289 18.9176 10.3025V16.1533C18.9176 16.5729 18.581 16.9109 18.1633 16.9109Z" fill="#08A742"/>
<path d="M40.4164 23.5951C35.5597 23.5951 31.9041 20.017 31.9041 15.2209C31.9041 10.4248 35.5597 6.84671 40.4164 6.84671C42.72 6.84671 44.7276 7.56933 46.3698 9.24184L47.7217 7.88402C45.9404 5.92013 43.2944 4.93527 40.3584 4.93527C34.289 4.93527 29.8036 9.29428 29.8036 15.2151C29.8036 21.1359 34.289 25.4949 40.3294 25.4949C43.2944 25.4949 45.9346 24.4809 47.7217 22.517L46.3698 21.1592C44.7276 22.8725 42.72 23.5951 40.4164 23.5951Z" fill="black"/>
<path d="M74.2905 5.11009L65.6332 20.0986L56.8947 5.11009H55.1365V25.3259H57.179V9.24183L65.0878 22.7559H66.0974L74.0004 9.15442V25.3259H76.0429V5.11009H74.2905Z" fill="black"/>
<path d="M86.1395 10.4248C86.1395 8.40268 87.7758 6.75931 91.4604 6.75931C93.2417 6.75931 95.2552 7.3071 96.9843 8.43182L97.7038 6.73018C96.0907 5.60546 93.7349 4.94112 91.4662 4.94112C86.3484 4.94112 84.0506 7.51107 84.0506 10.4889C84.0506 17.9657 96.4447 14.5624 96.4447 20.1044C96.4447 22.0974 94.8084 23.6884 91.0368 23.6884C88.3908 23.6884 85.8319 22.6511 84.3929 21.235L83.5574 22.8783C85.0544 24.4401 88.0137 25.5066 91.031 25.5066C96.1778 25.5066 98.5336 22.9657 98.5336 19.9879C98.5336 12.6218 86.1395 15.9669 86.1395 10.4248Z" fill="black"/>
<path d="M102.584 6.96326H109.657V25.3259H111.787V5.11009H102.584V6.96326Z" fill="black"/>
</svg>
