<svg width="143" height="72" viewBox="0 0 143 72" fill="none" xmlns="http://www.w3.org/2000/svg">
<g opacity="0.5">
<mask id="path-1-inside-1_5567_1012" fill="white">
<path d="M142.356 71.697C142.356 62.4044 140.526 53.2027 136.97 44.6174C133.413 36.0321 128.201 28.2313 121.63 21.6604C115.059 15.0895 107.259 9.87719 98.6732 6.32104C90.0879 2.76489 80.8863 0.93457 71.5936 0.93457C62.301 0.934571 53.0993 2.7649 44.514 6.32104C35.9287 9.87719 28.1279 15.0895 21.557 21.6604C14.9861 28.2313 9.77379 36.0321 6.21765 44.6174C2.6615 53.2027 0.831176 62.4044 0.831177 71.697L71.5936 71.697H142.356Z"/>
</mask>
<path d="M142.356 71.697C142.356 62.4044 140.526 53.2027 136.97 44.6174C133.413 36.0321 128.201 28.2313 121.63 21.6604C115.059 15.0895 107.259 9.87719 98.6732 6.32104C90.0879 2.76489 80.8863 0.93457 71.5936 0.93457C62.301 0.934571 53.0993 2.7649 44.514 6.32104C35.9287 9.87719 28.1279 15.0895 21.557 21.6604C14.9861 28.2313 9.77379 36.0321 6.21765 44.6174C2.6615 53.2027 0.831176 62.4044 0.831177 71.697L71.5936 71.697H142.356Z" stroke="white" stroke-width="1.26928" mask="url(#path-1-inside-1_5567_1012)"/>
</g>
</svg>
