<svg width="102" height="52" viewBox="0 0 102 52" fill="none" xmlns="http://www.w3.org/2000/svg">
<g opacity="0.5">
<mask id="path-1-inside-1_5567_1011" fill="white">
<path d="M0.35437 0.0885811C0.35437 6.79763 1.66761 13.441 4.2191 19.6393C6.7706 25.8377 10.5104 31.4697 15.2249 36.2137C19.9395 40.9577 25.5365 44.7208 31.6963 47.2883C37.8562 49.8557 44.4583 51.1772 51.1256 51.1772C57.793 51.1772 64.3951 49.8557 70.555 47.2883C76.7148 44.7208 82.3118 40.9577 87.0263 36.2137C91.7409 31.4697 95.4807 25.8377 98.0322 19.6393C100.584 13.441 101.897 6.79763 101.897 0.0885849H51.1256L0.35437 0.0885811Z"/>
</mask>
<path d="M0.35437 0.0885811C0.35437 6.79763 1.66761 13.441 4.2191 19.6393C6.7706 25.8377 10.5104 31.4697 15.2249 36.2137C19.9395 40.9577 25.5365 44.7208 31.6963 47.2883C37.8562 49.8557 44.4583 51.1772 51.1256 51.1772C57.793 51.1772 64.3951 49.8557 70.555 47.2883C76.7148 44.7208 82.3118 40.9577 87.0263 36.2137C91.7409 31.4697 95.4807 25.8377 98.0322 19.6393C100.584 13.441 101.897 6.79763 101.897 0.0885849H51.1256L0.35437 0.0885811Z" stroke="white" stroke-width="1.26928" mask="url(#path-1-inside-1_5567_1011)"/>
</g>
</svg>
