<svg width="148" height="149" viewBox="0 0 148 149" fill="none" xmlns="http://www.w3.org/2000/svg">
<path d="M73.4021 148.762C113.941 148.762 146.804 115.716 146.804 74.9526C146.804 34.1887 113.941 1.14307 73.4021 1.14307C32.8632 1.14307 0 34.1887 0 74.9526C0 115.716 32.8632 148.762 73.4021 148.762Z" stroke="#FBFBFB" stroke-width="0.446724" stroke-miterlimit="10"/>
<path d="M73.4021 143.442C111.019 143.442 141.513 112.778 141.513 74.9523C141.513 37.1268 111.019 6.46313 73.4021 6.46313C35.7854 6.46313 5.29095 37.1268 5.29095 74.9523C5.29095 112.778 35.7854 143.442 73.4021 143.442Z" stroke="#FBFBFB" stroke-width="0.436633" stroke-miterlimit="10"/>
<path d="M73.4022 138.122C108.097 138.122 136.222 109.84 136.222 74.9526C136.222 40.0654 108.097 11.7837 73.4022 11.7837C38.7075 11.7837 10.5819 40.0654 10.5819 74.9526C10.5819 109.84 38.7075 138.122 73.4022 138.122Z" stroke="#FBFBFB" stroke-width="0.426606" stroke-miterlimit="10"/>
<path d="M73.4022 132.801C105.175 132.801 130.932 106.901 130.932 74.9524C130.932 43.0035 105.175 17.1038 73.4022 17.1038C41.6296 17.1038 15.8729 43.0035 15.8729 74.9524C15.8729 106.901 41.6296 132.801 73.4022 132.801Z" stroke="#FBFBFB" stroke-width="0.416578" stroke-miterlimit="10"/>
<path d="M73.4022 127.481C102.253 127.481 125.641 103.963 125.641 74.9527C125.641 45.9421 102.253 22.4243 73.4022 22.4243C44.5517 22.4243 21.1638 45.9421 21.1638 74.9527C21.1638 103.963 44.5517 127.481 73.4022 127.481Z" stroke="#FBFBFB" stroke-width="0.406551" stroke-miterlimit="10"/>
<path d="M73.4021 122.086C99.2894 122.086 120.275 100.983 120.275 74.9525C120.275 48.9216 99.2894 27.8193 73.4021 27.8193C47.5149 27.8193 26.5291 48.9216 26.5291 74.9525C26.5291 100.983 47.5149 122.086 73.4021 122.086Z" stroke="#FBFBFB" stroke-width="0.39646" stroke-miterlimit="10"/>
<path d="M114.919 77.0622C116.097 53.9996 98.4601 34.343 75.5248 33.158C52.5895 31.9729 33.0414 49.7082 31.8628 72.7708C30.6843 95.8334 48.3217 115.49 71.257 116.675C94.1923 117.86 113.74 100.125 114.919 77.0622Z" stroke="#FBFBFB" stroke-width="0.386433" stroke-miterlimit="10"/>
<path d="M109.654 76.2767C110.399 56.1365 94.7664 39.2025 74.7373 38.4535C54.7083 37.7045 37.8677 53.4242 37.1228 73.5644C36.378 93.7046 52.0109 110.639 72.04 111.388C92.069 112.137 108.91 96.417 109.654 76.2767Z" stroke="#FBFBFB" stroke-width="0.376405" stroke-miterlimit="10"/>
<path d="M104.374 75.7609C104.833 58.5518 91.3307 44.2271 74.2166 43.7657C57.1025 43.3043 42.8568 56.881 42.3979 74.0901C41.9391 91.2993 55.4409 105.624 72.555 106.085C89.6691 106.547 103.915 92.9701 104.374 75.7609Z" stroke="#FBFBFB" stroke-width="0.366378" stroke-miterlimit="10"/>
<path d="M99.0912 75.4106C99.3595 61.1358 88.0687 49.3451 73.8727 49.0754C59.6766 48.8056 47.951 60.159 47.6828 74.4339C47.4145 88.7087 58.7053 100.499 72.9013 100.769C87.0974 101.039 98.823 89.6855 99.0912 75.4106Z" stroke="#FBFBFB" stroke-width="0.356351" stroke-miterlimit="10"/>
<path d="M93.7287 75.1812C93.871 63.8843 84.879 54.6104 73.6444 54.4674C62.4099 54.3243 53.1872 63.3663 53.0449 74.6631C52.9027 85.96 61.8947 95.2339 73.1293 95.3769C84.3638 95.52 93.5865 86.478 93.7287 75.1812Z" stroke="#FBFBFB" stroke-width="0.34626" stroke-miterlimit="10"/>
<path d="M88.4436 75.0297C88.507 66.67 81.819 59.8414 73.5054 59.7776C65.1919 59.7139 58.401 66.439 58.3376 74.7987C58.2741 83.1584 64.9622 89.987 73.2757 90.0508C81.5893 90.1146 88.3802 83.3894 88.4436 75.0297Z" stroke="#FBFBFB" stroke-width="0.336233" stroke-miterlimit="10"/>
<path d="M83.1512 74.952C83.1699 69.5306 78.8145 65.1204 73.423 65.1015C68.0316 65.0827 63.6457 69.4623 63.627 74.8837C63.6082 80.305 67.9637 84.7152 73.3551 84.7341C78.7466 84.753 83.1324 80.3734 83.1512 74.952Z" stroke="#FBFBFB" stroke-width="0.326205" stroke-miterlimit="10"/>
<path d="M68.931 74.9523C68.931 72.4795 70.9431 70.4563 73.4022 70.4563C75.8614 70.4563 77.8734 72.4795 77.8734 74.9523C77.8734 77.4251 75.8614 79.4483 73.4022 79.4483C70.9431 79.4483 68.931 77.4251 68.931 74.9523Z" stroke="#FBFBFB" stroke-width="0.316178" stroke-miterlimit="10"/>
</svg>
